Genre: Action/Comedy/Drama
Language:Cantonese
IMDb:http://www.imdb.com/title/tt1611823/
Source:DVD
Sample:yes
Subtitles:English
............................................
General
Complete name : Gallants.2010.DVDRIP.XVID.FEEL-FREE
Format : AVI
Format/Info : Audio Video Interleave
File size : 927 MiB
Duration : 1h 36mn
Overall bit rate : 1 340 Kbps
..............................................
Video
Format : xvid
Codec ID : xvid
Duration : 1h 36mn
Bit rate : 1 199 Kbps
Width : 720 pixels
Height : 304 pixels
Display aspect ratio : 2.35:1
Frame rate : 23.976 fps
Resolution : 24 bits
Bits/(Pixel*Frame) : 0.229
Stream size : 829 MiB (89%)
..............................................
Audio
ID : 1
Format : MPEG Audio
Format version : Version 1
Format profile : Layer 3
Codec ID : 55
Codec ID/Hint : MP3
Duration : 1h 36mn
Bit rate mode : Constant
Bit rate : 128 Kbps
Channel(s) : 2 channels
Sampling rate : 48.0 KHz
Resolution : 16 bits
Stream size : 88.5 MiB (10%)
Alignment : Aligned on interleaves
Interleave, duration : 24 ms (0.58 video frame)
Interleave, preload duration : 24 ms
Writing library : LAME3.97
...............................................
Plot:
Gallants sees two have-been masters Bruce Leung Siu-lung and Chan Kwun-tai holed up in a village restaurant, tending their master in a coma. Trouble arrives in the form of a gang of roughs-diplomats of ruthless developers drooling over their property. The master wakes up with a start, and kick starts the old boys into action for home and country.
...................................................
Screens:
 
http://www.starshare.ro/bitbucket/Gallants.2010.DVDRIP.XVID.FEEL-FREE.avi_thumbs_%5B2010.07.30_15.53.37%5D.jpg
 
http://www.starshare.ro/bitbucket/Gallants.2010.DVDRIP.XVID.FEEL-FREE.avi_snapshot_00.08.02_%5B2010.07.30_15.53.48%5D.jpg
 
http://www.starshare.ro/bitbucket/Gallants.2010.DVDRIP.XVID.FEEL-FREE.avi_snapshot_00.32.59_%5B2010.07.30_15.53.51%5D.jpg
 
http://www.starshare.ro/bitbucket/Gallants.2010.DVDRIP.XVID.FEEL-FREE.avi_snapshot_00.59.51_%5B2010.07.30_15.53.57%5D.jpg
 
http://www.starshare.ro/bitbucket/Gallants.2010.DVDRIP.XVID.FEEL-FREE.avi_snapshot_00.59.51_%5B2010.07.30_15.53.57%5D.jpg
 
http://www.starshare.ro/bitbucket/Gallants.2010.DVDRIP.XVID.FEEL-FREE.avi_snapshot_01.20.26_%5B2010.07.30_15.54.02%5D.jpg

...................................................................